<?xml version="1.0" encoding="UTF-8" standalone="no"?>
<!DOCTYPE svg PUBLIC "-//W3C//DTD SVG 1.1//EN" "http://www.w3.org/Graphics/SVG/1.1/DTD/svg11.dtd">
<svg width="100%" height="100%" viewBox="0 0 216 106" version="1.1" xmlns="http://www.w3.org/2000/svg" xmlns:xlink="http://www.w3.org/1999/xlink" xml:space="preserve" xmlns:serif="http://www.serif.com/" style="fill-rule:evenodd;clip-rule:evenodd;stroke-linejoin:round;stroke-miterlimit:2;">
    <g transform="matrix(1,0,0,1,-4.80166,-80.0081)">
        <g transform="matrix(0.774409,0,0,0.693286,9.80879,48.6128)">
            <path d="M188.424,48.922C187.915,49.649 187.405,50.375 186.913,51.114C186.134,52.283 185.359,53.455 184.614,54.646C184.139,55.406 183.669,56.169 183.207,56.938C181.985,58.568 180.745,60.186 179.528,61.819C169.383,75.427 161.61,90.847 149.937,103.309C148.872,104.446 147.786,105.566 146.634,106.615C146.056,107.141 144.591,108.539 142.834,109.874C144.33,104.552 146.224,99.313 148.071,94.115C148.289,93.502 150.895,87.317 151.129,84.489C151.456,80.541 149.56,78.377 147.665,77.488C146.641,77.008 145.274,76.776 143.702,77.185C142.052,77.614 139.511,79.379 138.83,79.776C135.71,81.592 132.637,83.514 129.413,85.144C128.532,85.589 127.644,86.024 126.737,86.413C126.306,86.597 122.923,87.449 121.218,87.873C120.773,87.573 120.415,87.338 120.23,87.228C118.572,86.241 117.348,86.505 117.179,86.524C115.258,86.741 114.172,87.853 113.496,88.908C112.815,89.971 112.4,91.277 112.564,92.909C112.585,93.116 112.611,93.319 112.646,93.519L112.412,93.568C112.303,93.598 112.193,93.628 112.083,93.658L111.89,93.723C112.31,92.195 112.672,90.512 112.62,89.389C112.475,86.288 110.99,84.413 109.081,83.505C108.063,83.02 106.762,82.8 105.294,83.162C103.723,83.549 101.402,85.208 100.858,85.595C99.841,86.32 98.842,87.078 97.865,87.867C97.635,87.064 97.28,86.34 96.83,85.704C95.895,84.381 94.344,83.243 92.085,83.419C90.802,83.518 88.361,84.775 88.177,84.886C85.632,86.42 83.247,88.216 80.941,90.083C75.092,94.819 69.433,99.867 63.821,104.948C66.052,99.083 68.126,93.139 69.972,87.141C70.368,85.855 71.18,83.86 71.533,82.063C71.828,80.564 71.865,79.126 71.659,77.894C71.203,75.154 69.739,74.164 68.861,73.666C67.379,72.824 65.647,72.617 63.776,73.889C63.359,74.173 62.847,74.607 62.358,75.289C62.001,75.787 61.321,77.407 60.999,78.101C60.524,79.126 60.071,80.159 59.606,81.188C54.697,77.378 48.755,78.383 43.072,81.164C34.327,85.444 26.598,93.992 22.811,102.954C21.659,105.679 20.195,110.708 20.423,114.943C20.658,119.304 22.396,122.944 26.085,124.849C28.925,126.317 31.968,126.389 34.944,125.522C38.264,124.555 41.495,122.322 43.848,120.48C45.072,119.523 46.255,118.519 47.401,117.474C46.834,118.774 46.259,120.069 45.675,121.359C29.874,135.808 14.251,151.376 2.509,169.101C-0.513,173.662 -3.327,178.555 -5.148,183.742C-5.454,184.614 -6.397,187.522 -6.461,189.767C-6.532,192.239 -5.752,194.27 -4.565,195.606C-3.423,196.892 -1.411,198.01 1.326,197.158C3.349,196.528 7.149,193.571 7.299,193.455C14.977,187.519 21.485,180.141 27.487,172.559C38.328,158.863 46.741,144.214 53.886,128.758C56.045,126.796 58.205,124.856 60.354,122.932C66.044,117.838 71.691,112.601 77.455,107.528C76.293,109.516 75.126,111.502 73.959,113.487C70.066,118.816 66.677,124.397 64.282,130.011C62.035,135.28 66.488,137.726 66.875,137.911C67.585,138.251 70.31,139.467 72.746,136.473C72.903,136.28 73.808,134.78 74.159,134.2C74.493,133.647 74.842,133.104 75.173,132.55C76.999,129.49 78.74,126.38 80.545,123.308L82.505,119.973C87.029,113.886 92.29,108.176 97.33,103.199C96.417,105.493 95.48,107.778 94.532,110.058C93.698,112.065 92.837,114.062 92.015,116.074C91.773,116.574 91.091,118.016 90.957,118.62C90.706,119.751 90.762,120.77 90.954,121.622C91.415,123.664 92.508,125.517 95.254,126.069C96.438,126.307 98.247,126.157 100.037,124.626C99.93,126.317 99.9,130.11 100.89,132.52C101.639,134.339 102.811,135.69 104.317,136.489C105.68,137.213 107.432,137.591 109.698,136.846C112.751,135.841 115.564,132.391 117.303,130.026C122.607,122.811 126.884,113.75 128.235,104.833C128.582,102.541 128.764,100.169 128.49,97.904C129.449,97.58 130.159,97.306 130.435,97.187C131.532,96.717 132.606,96.195 133.672,95.656C134.817,95.078 135.944,94.465 137.062,93.832C135.352,98.681 133.698,103.576 132.401,108.537C132.081,109.762 130.784,114.418 131.1,117.03C131.362,119.197 132.272,120.806 133.481,121.873C135.742,123.867 138.884,124.359 142.345,123.092C146.654,121.514 151.807,116.792 153.16,115.56C154.524,114.318 155.814,112.997 157.075,111.651C160.729,107.75 164.017,103.572 167.116,99.252C166.7,101.595 166.378,103.938 166.163,106.267C165.945,108.641 165.545,112.499 166.012,115.867C166.498,119.363 167.872,122.376 170.197,124.289C172.739,126.381 175.825,126.85 179.081,125.935C183.911,124.577 189.281,119.553 191.38,117.084C192.201,116.118 192.995,115.132 193.764,114.124C197.238,127.094 205.755,135.003 216.46,139.157C226.666,143.117 238.935,143.55 250.148,141.85C252.973,141.422 254.955,138.512 254.571,135.357C254.188,132.202 251.583,129.987 248.759,130.416C239.14,131.874 228.605,131.654 219.85,128.257C212.006,125.213 205.646,119.513 203.387,109.722C202.678,106.65 202.559,103.4 202.655,100.2C206.838,92.537 210.431,84.489 214.292,76.792C217.095,71.203 220.089,65.692 222.531,59.931C222.681,59.616 223.81,57.223 224.284,55.598C224.841,53.688 224.847,51.897 224.579,50.722C224.206,49.087 223.396,47.871 222.293,47.017C221.384,46.314 220.19,45.772 218.56,45.885C216.708,46.013 214.574,47.04 212.593,48.917C210.031,51.345 207.506,55.421 206.433,56.838C198.017,67.952 193.434,81.867 192.533,95.705L192.47,96.737C189.944,101.11 187.151,105.301 183.889,109.138C182.91,110.289 180.875,112.344 178.64,113.745C178.093,114.088 177.536,114.391 176.979,114.604C176.817,114.666 176.59,114.721 176.394,114.762C176.297,114.326 176.161,113.641 176.136,113.182C176.021,111.073 176.307,108.886 176.44,107.446C177.482,96.116 181.48,84.458 186.072,74.107C187.644,70.563 189.501,67.165 191.495,63.847C193.046,61.773 194.569,59.676 195.995,57.511C195.992,57.516 195.867,57.699 195.867,57.699C195.867,57.699 198.224,54.032 198.504,52.938C198.959,51.162 198.638,49.756 198.261,48.815C197.467,46.829 196.226,46.033 195.164,45.619C194.092,45.203 192.938,45.146 191.719,45.615C191.086,45.859 190.314,46.304 189.587,47.134C189.293,47.47 188.65,48.541 188.424,48.922ZM26.334,156.027C21.291,161.693 16.554,167.586 12.303,173.761C14.903,170.907 17.366,167.925 19.748,164.916C22.056,162 24.247,159.037 26.334,156.027ZM117.591,104.934L117.395,105.284C116.894,106.453 116.381,107.617 115.874,108.783C114.344,112.306 112.589,115.856 111.464,119.559C114.332,115.027 116.652,109.873 117.729,104.681L117.591,104.934ZM54.459,91.332C54.316,91.216 54.177,91.09 54.042,90.955C53.196,90.105 52.179,90.098 51.159,90.286C49.853,90.525 48.526,91.093 47.218,91.733C40.726,94.91 34.964,101.227 32.153,107.88C31.708,108.932 31.157,110.569 30.88,112.271C30.772,112.929 30.788,114.002 30.805,114.521C31.578,114.721 32.39,114.385 33.17,114.058C34.963,113.306 36.626,112.042 37.921,111.029C44.639,105.773 49.912,98.834 54.309,91.582L54.459,91.332Z"/>
        </g>
        <g transform="matrix(0.774409,0,0,0.693286,9.80879,48.6128)">
            <path d="M139.241,77.884C191.603,88.077 212.735,85.373 265.862,87.193C268.711,87.291 271.095,84.786 271.183,81.603C271.27,78.421 269.028,75.757 266.178,75.66C213.664,73.86 192.773,76.592 141.015,66.516C138.206,65.969 135.529,68.072 135.04,71.209C134.55,74.346 136.433,77.337 139.241,77.884Z"/>
        </g>
    </g>
</svg>
